HIERARCHY
ROOT Hips
{
  OFFSET 1.44925e-005 102.336 -0.101585
  CHANNELS 6 Xposition Yposition Zposition Zrotation Xrotation Yrotation
  JOINT LeftUpLeg
  {
    OFFSET 8.9458 -8.66707 0.101652
    CHANNELS 3 Zrotation Xrotation Yrotation
    JOINT LeftLeg
    {
      OFFSET 0 -44.4227 1.3727
      CHANNELS 3 Zrotation Xrotation Yrotation
      JOINT LeftFoot
      {
        OFFSET -0.253549 -42.0924 -1.46059
        CHANNELS 3 Zrotation Xrotation Yrotation
        JOINT LeftToes
        {
          OFFSET -0.04 -4.41509 8.4991
          CHANNELS 3 Zrotation Xrotation Yrotation
          End Site
          {
            OFFSET 0.08 -0.047448 9.77979
          }
        }
      }
    }
  }
  JOINT Spine
  {
    OFFSET 0 11.8905 0
    CHANNELS 3 Zrotation Xrotation Yrotation
    JOINT Spine1
    {
      OFFSET 0 25.6574 0.127663
      CHANNELS 3 Zrotation Xrotation Yrotation
      JOINT RightShoulder
      {
        OFFSET -8.99 -0.362252 -0.22
        CHANNELS 3 Zrotation Xrotation Yrotation
        JOINT RightArm
        {
          OFFSET -10.2827 -0.00338 0.322123
          CHANNELS 3 Zrotation Xrotation Yrotation
          JOINT RightForeArm
          {
            OFFSET -26.364 0.099144 -1.42434
            CHANNELS 3 Zrotation Xrotation Yrotation
            JOINT RightHand
            {
              OFFSET -22.0324 0.085362 1.02216
              CHANNELS 3 Zrotation Xrotation Yrotation
              End Site
              {
                OFFSET -13.3284 -0.6 1.50291
              }
            }
          }
        }
      }
      JOINT LeftShoulder1
      {
        OFFSET 8.99 -0.362252 -0.22
        CHANNELS 3 Zrotation Xrotation Yrotation
        JOINT LeftArm
        {
          OFFSET 10.2827 -0.00337999 0.322123
          CHANNELS 3 Zrotation Xrotation Yrotation
          JOINT LeftForeArm
          {
            OFFSET 26.2597 0.099144 -1.42434
            CHANNELS 3 Zrotation Xrotation Yrotation
            JOINT LeftHand
            {
              OFFSET 22.0902 0.085362 1.02216
              CHANNELS 3 Zrotation Xrotation Yrotation
              End Site
              {
                OFFSET 13.419 -0.6 1.50291
              }
            }
          }
        }
      }
      JOINT Head
      {
        OFFSET 0 8.73416 0.011341
        CHANNELS 3 Zrotation Xrotation Yrotation
        End Site
        {
          OFFSET -0.29 12.7742 2.51395
        }
      }
    }
  }
  JOINT RightUpLeg
  {
    OFFSET -8.9458 -8.66707 0.101652
    CHANNELS 3 Zrotation Xrotation Yrotation
    JOINT RightLeg
    {
      OFFSET 0 -44.4227 1.3727
      CHANNELS 3 Zrotation Xrotation Yrotation
      JOINT RightFoot
      {
        OFFSET 0.253549 -42.0924 -1.46059
        CHANNELS 3 Zrotation Xrotation Yrotation
        JOINT RightToes
        {
          OFFSET 0.04 -4.41509 8.4991
          CHANNELS 3 Zrotation Xrotation Yrotation
          End Site
          {
            OFFSET -0.08 -0.137448 9.77979
          }
        }
      }
    }
  }
}
MOTION
Frames:	15
Frame Time:	0.0333333
191.206 103.02 4.16319 -5.04511 -0.434587 -90.7361 -1.72399 4.37905 2.46188 -0.222621 7.76783 22.8085 -1.39358 -11.4476 0.00921206 -1.29516e-009 8.75257e-006 -1.47836e-008 0.821456 8.08854 -0.198973 -2.07807 -0.882692 0.28745 37.9378 1.73567 -0.0270818 40.6908 -19.2073 6.32362 8.01411 37.5199 8.37194 -8.12909 9.54772 0.0904357 -43.9795 3.45559 -3.32546 -28.7257 -15.3756 -0.149098 -5.96494 36.5843 -12.5149 5.82328 9.61819 -0.917488 1.03236 -2.28448 -4.29716 -0.271492 3.7185 -4.02337 -0.0736215 10.4734 -10.6756 2.34293 -13.3489 -0.0913344 0.0462048 0.000530889 0.662642 
191.199 103.02 4.17323 -5.03305 -0.43042 -90.7349 -1.72619 4.38141 2.46106 -0.228639 7.74122 22.8232 -1.39358 -11.4476 0.00921206 -1.29516e-009 8.75257e-006 -1.47836e-008 0.755049 7.98784 -0.191881 -1.94736 -0.740784 0.271023 37.8639 1.73567 -0.0217663 40.8245 -19.3884 6.45513 8.0557 37.7065 8.24293 -8.07717 9.56192 -0.101233 -44.0745 3.46862 -3.33711 -28.68 -15.3584 -0.192134 -5.85056 36.6938 -12.6295 5.82328 9.61819 -0.917488 0.590172 -2.74896 -3.78251 -0.284193 3.70484 -4.03729 -0.0629125 10.4845 -10.6585 2.40369 -13.3587 -0.0913382 0.0462048 0.000530889 0.662642 
191.189 103.02 4.19274 -5.0073 -0.435539 -90.7246 -1.749 4.3569 2.42604 -0.21819 7.73762 22.8601 -1.39262 -11.4481 0.00921207 -1.29516e-009 8.75257e-006 -1.47836e-008 0.597048 7.75016 -0.16848 -1.65672 -0.413598 0.243302 37.6981 1.73567 -0.0118978 41.0649 -19.5455 6.65261 8.08163 37.8207 8.15075 -8.12674 9.56777 -0.23347 -44.2944 3.49385 -3.35417 -28.5634 -15.3639 -0.319842 -5.73122 36.8539 -12.74 5.82328 9.61819 -0.917488 0.0135342 -3.3151 -3.00035 -0.313396 3.66285 -4.06885 -0.0481947 10.5325 -10.628 2.43483 -13.3916 -0.0913506 0.0462048 0.000530889 0.662642 
191.18 103.02 4.2179 -4.98624 -0.469366 -90.7343 -1.81192 4.34177 2.36626 -0.206333 7.72779 22.9347 -1.37901 -11.4467 0.00921203 -1.29516e-009 8.75257e-006 -1.47836e-008 0.421055 7.53313 -0.127078 -1.37085 -0.115185 0.234589 37.5169 1.73567 -0.00227493 41.28 -19.4815 6.76325 8.06379 37.7014 8.20624 -8.36715 9.54582 -0.0580089 -44.5726 3.52053 -3.36523 -28.3809 -15.2925 -0.432941 -5.69859 36.8728 -12.7858 5.82328 9.61819 -0.917488 -0.639489 -4.14239 -2.62824 -0.383715 3.59796 -4.13217 -0.0346213 10.6299 -10.5337 2.42003 -13.447 -0.0913717 0.0462048 0.000530889 0.662642 
191.176 103.02 4.24448 -4.97887 -0.515847 -90.7697 -1.88294 4.35632 2.32704 -0.217216 7.69003 23.0113 -1.33551 -11.4335 0.0092116 -1.29516e-009 8.75257e-006 -1.47836e-008 0.31034 7.44222 -0.0911042 -1.22424 0.0165579 0.244319 37.4199 1.73567 0.00590805 41.3954 -19.3485 6.80294 8.06248 37.6104 8.24956 -8.70809 9.50862 0.265393 -44.7865 3.53824 -3.36848 -28.2221 -15.1079 -0.457919 -5.69256 36.6966 -12.8459 5.82328 9.61819 -0.917488 -1.42435 -5.42316 -3.02209 -0.473863 3.54562 -4.2077 -0.0194598 10.7167 -10.3996 2.39755 -13.49 -0.0913881 0.0462048 0.000530889 0.662642 
191.177 103.021 4.26775 -4.97965 -0.53288 -90.7548 -1.9083 4.36303 2.32513 -0.234991 7.67878 23.0026 -1.30099 -11.4225 0.00921124 -1.29516e-009 8.75257e-006 -1.47836e-008 0.288583 7.4175 -0.0983341 -1.19792 0.0645837 0.231233 37.4286 1.73567 0.0127242 41.43 -19.3571 6.86457 8.11781 37.6822 8.15641 -9.006 9.49088 0.312512 -44.8622 3.54401 -3.37034 -28.1782 -14.9096 -0.445182 -5.65198 36.4034 -12.9652 5.82328 9.61819 -0.917488 -2.21934 -6.64306 -3.59349 -0.513536 3.5566 -4.2408 -0.00907431 10.6986 -10.3687 2.37945 -13.481 -0.0913847 0.0462048 0.000530889 0.662642 
191.173 103.022 4.28565 -4.98229 -0.511963 -90.6325 -1.88071 4.33932 2.3377 -0.232554 7.72478 22.8731 -1.30015 -11.4272 0.00921139 -1.29516e-009 8.75257e-006 -1.47836e-008 0.314331 7.37084 -0.152134 -1.18931 0.142917 0.174916 37.4703 1.73567 0.0153861 41.4476 -19.458 6.93664 8.17815 37.6633 8.05181 -9.15461 9.51097 -0.0781079 -44.8476 3.54408 -3.37099 -28.2243 -14.7903 -0.470136 -5.60913 36.1174 -13.0779 5.82328 9.61819 -0.917488 -2.83466 -7.50157 -3.46802 -0.476751 3.63659 -4.21335 -0.0132871 10.5739 -10.5148 2.37682 -13.4314 -0.0913657 0.0462048 0.000530889 0.662642 
191.162 103.022 4.29942 -4.98424 -0.478349 -90.4735 -1.83696 4.31532 2.35107 -0.222964 7.77166 22.6997 -1.29357 -11.4473 0.00921205 -1.29516e-009 8.75257e-006 -1.47836e-008 0.344968 7.31918 -0.208656 -1.16728 0.213474 0.114647 37.5044 1.73567 0.011509 41.4648 -19.5022 6.94034 8.17709 37.4338 8.08171 -9.1189 9.54588 -0.553465 -44.8159 3.54161 -3.3702 -28.2786 -14.7593 -0.518762 -5.61194 35.9826 -13.1031 5.82328 9.61819 -0.917488 -3.00792 -7.96207 -3.13423 -0.418601 3.72339 -4.17267 -0.0210651 10.4493 -10.7118 2.40582 -13.3907 -0.0913503 0.0462048 0.000530889 0.662642 
191.155 103.023 4.31233 -4.97948 -0.454143 -90.3934 -1.80143 4.30865 2.37516 -0.236781 7.77408 22.5912 -1.24779 -11.4745 0.00921293 -1.29516e-009 8.75257e-006 -1.47836e-008 0.387362 7.29867 -0.22917 -1.18987 0.215536 0.0993755 37.5744 1.73567 0.0037347 41.4542 -19.5518 6.90178 8.1323 37.3363 8.15165 -8.96569 9.56157 -0.686982 -44.7675 3.53558 -3.36579 -28.3243 -14.8183 -0.54809 -5.64621 36.1174 -13.0324 5.82328 9.61819 -0.917488 -2.10802 -7.7302 -4.54683 -0.395178 3.75404 -4.16519 -0.00818072 10.4016 -10.7939 2.44083 -13.378 -0.0913454 0.0462048 0.000530889 0.662642 
191.16 103.023 4.32725 -4.96381 -0.434864 -90.4078 -1.77569 4.29107 2.40484 -0.26627 7.76969 22.5765 -1.20595 -11.4984 0.00921372 -1.29516e-009 8.75257e-006 -1.47836e-008 0.46426 7.26495 -0.216013 -1.27934 0.231089 0.130836 37.6681 1.73567 -0.00270997 41.4433 -19.7565 6.92684 8.09784 37.6163 8.10941 -8.81988 9.55567 -0.512066 -44.7046 3.52671 -3.35783 -28.3774 -15.0124 -0.600126 -5.69598 36.5076 -12.8821 5.82328 9.61819 -0.917488 -1.84076 -7.69359 -5.16691 -0.399358 3.7302 -4.17812 0.0205099 10.4049 -10.7641 2.43832 -13.3695 -0.0913422 0.0462048 0.000530889 0.662642 
191.175 103.024 4.34385 -4.95037 -0.419948 -90.4357 -1.76528 4.25529 2.41642 -0.280055 7.79606 22.5985 -1.21759 -11.511 0.00921413 -1.29516e-009 8.75257e-006 -1.47836e-008 0.553961 7.18487 -0.187968 -1.36081 0.360246 0.177466 37.6544 1.73567 -0.00651518 41.5248 -20.0336 7.01851 8.06383 37.9685 8.03527 -8.73484 9.55073 -0.384635 -44.7002 3.52396 -3.35337 -28.4071 -15.3616 -0.753294 -5.79416 36.9941 -12.6456 5.82328 9.61819 -0.917488 -2.00106 -7.74324 -5.13528 -0.401151 3.69721 -4.17644 0.0305527 10.418 -10.7414 2.41559 -13.3547 -0.0913366 0.0462048 0.000530889 0.662642 
191.189 103.025 4.35892 -4.9619 -0.420031 -90.4218 -1.77299 4.24219 2.40993 -0.276332 7.82774 22.5942 -1.24833 -11.5149 0.00921425 -1.29516e-009 8.75257e-006 -1.47836e-008 0.610518 7.12508 -0.155856 -1.36833 0.536966 0.215929 37.4842 1.73567 -0.0109316 41.699 -20.1474 7.06211 7.96948 38.0056 8.128 -8.63564 9.55998 -0.459962 -44.7859 3.53094 -3.35268 -28.3858 -15.7424 -0.976718 -5.94208 37.3674 -12.3723 5.82328 9.61819 -0.917488 -2.15519 -7.80254 -5.14283 -0.401419 3.68666 -4.16123 0.010245 10.448 -10.7756 2.42053 -13.3548 -0.0913367 0.0462048 0.000530889 0.662642 
191.201 103.025 4.3706 -4.99834 -0.425312 -90.387 -1.7818 4.26255 2.41034 -0.276607 7.84704 22.5584 -1.23885 -11.5198 0.00921442 -1.29516e-009 8.75257e-006 -1.47836e-008 0.632653 7.14152 -0.133626 -1.35011 0.627562 0.238727 37.3391 1.73675 -0.0139133 41.802 -20.0558 7.00819 7.81884 37.8425 8.37512 -8.44921 9.57354 -0.546689 -44.8558 3.53201 -3.34589 -28.3574 -15.8965 -1.12697 -6.04892 37.4358 -12.2229 5.82328 9.61819 -0.917488 -2.13073 -7.80821 -5.39675 -0.399367 3.69747 -4.15524 -0.0111735 10.4942 -10.8204 2.43625 -13.3736 -0.0913438 0.0462048 0.000530889 0.662642 
191.218 103.025 4.38022 -5.02883 -0.420953 -90.3701 -1.77898 4.26572 2.42249 -0.283613 7.88288 22.5339 -1.20654 -11.5246 0.00921457 -1.29516e-009 8.75257e-006 -1.47836e-008 0.656412 7.17539 -0.136659 -1.39385 0.626754 0.245333 37.4172 1.74166 -0.0151341 41.6981 -19.9621 6.94686 7.70315 37.8581 8.54628 -8.22608 9.57677 -0.448183 -44.7985 3.51859 -3.32831 -28.3772 -15.673 -1.10918 -6.03563 37.1191 -12.3167 5.82328 9.61819 -0.917488 -2.00163 -7.74967 -5.50171 -0.397172 3.70775 -4.15861 -0.0115261 10.52 -10.8377 2.41413 -13.3811 -0.0913466 0.0462048 0.000530889 0.662642 
191.242 103.026 4.3886 -5.02819 -0.413389 -90.3819 -1.77782 4.22526 2.42567 -0.285534 7.93422 22.553 -1.20834 -11.5182 0.00921436 -1.29516e-009 8.75257e-006 -1.47836e-008 0.682106 7.15802 -0.155127 -1.48131 0.617185 0.242766 37.6477 1.7461 -0.015364 41.4816 -20.0175 6.96392 7.70403 38.0781 8.49761 -8.08679 9.57217 -0.276804 -44.657 3.4993 -3.31156 -28.4379 -15.2601 -0.976687 -5.94025 36.605 -12.5602 5.82328 9.61819 -0.917488 -1.89644 -7.70765 -5.36015 -0.398227 3.69251 -4.15454 -0.00655034 10.5172 -10.8325 2.37488 -13.3622 -0.0913395 0.0462048 0.000530889 0.662642 
